<svg aria-hidden="true" style="position:absolute;width:0;height:0" xmlns="http://www.w3.org/2000/svg" overflow="hidden">
    <defs>
        <symbol id="icon-edit" viewBox="0 0 32 32">
            <path
                d="M27 0a5 5 0 014 8l-2 2-7-7 2-2c.836-.628 1.874-1 3-1zM2 23l-2 9 9-2 18.5-18.5-7-7L2 23zm20.362-11.638l-14 14-1.724-1.724 14-14 1.724 1.724z" />
        </symbol>
        <symbol id="icon-home" viewBox="0 0 32 32">
            <path
                d="M27 0H3C1.35 0 0 1.35 0 3v26c0 1.65 1.35 3 3 3h24c1.65 0 3-1.35 3-3V3c0-1.65-1.35-3-3-3zm-1 28H4V4h22v24zM8 14h14v2H8zm0 4h14v2H8zm0 4h14v2H8zm0-12h14v2H8z" />
        </symbol>
        <symbol id="icon-add" viewBox="0 0 32 32">
            <path
                d="M27 0H3C1.35 0 0 1.35 0 3v26c0 1.65 1.35 3 3 3h24c1.65 0 3-1.35 3-3V3c0-1.65-1.35-3-3-3zm-1 28H4V4h22v24zM8 18h14v2H8zm0 4h14v2H8zm2-13a3 3 0 116 0 3 3 0 01-6 0zm5 3h-4c-1.65 0-3 .9-3 2v2h10v-2c0-1.1-1.35-2-3-2z" />
        </symbol>
        <symbol id="icon-stats" viewBox="0 0 32 32">
            <path
                d="M4 28h28v4H0V0h4zm5-2a3 3 0 11.262-5.988l3.225-5.375a3 3 0 115.026 0l3.225 5.375a3.238 3.238 0 01.46-.005l5.324-9.316a3 3 0 112.28 1.302l-5.324 9.316a3 3 0 11-4.991.053l-3.225-5.375c-.086.007-.174.012-.262.012s-.176-.005-.262-.012l-3.225 5.375A3 3 0 019 25.999z" />
        </symbol>
        <symbol id="icon-delete" viewBox="0 0 32 32">
            <path d="M6 32h20l2-22H4zM20 4V0h-8v4H2v6l2-2h24l2 2V4H20zm-2 0h-4V2h4v2z" />
        </symbol>
        <symbol id="icon-plus" viewBox="0 0 32 32">
            <path
                d="M31 12H20V1a1 1 0 00-1-1h-6a1 1 0 00-1 1v11H1a1 1 0 00-1 1v6a1 1 0 001 1h11v11a1 1 0 001 1h6a1 1 0 001-1V20h11a1 1 0 001-1v-6a1 1 0 00-1-1z" />
        </symbol>
        <symbol id="icon-minus" viewBox="0 0 32 32">
            <path d="M0 13v6a1 1 0 001 1h30a1 1 0 001-1v-6a1 1 0 00-1-1H1a1 1 0 00-1 1z" />
        </symbol>
        <symbol id="icon-checkmark" viewBox="0 0 32 32">
            <path d="M27 4L12 19l-7-7-5 5 12 12L32 9z" />
        </symbol>
    </defs>
</svg>